# xmcd CD database file
# Copyright (C) 1993-1996 Ti Kan
#
# Track frame offsets:
#	217
#	19795
#	41680
#	60122
#	73545
#	109402
#	130535
#	149742
#	178732
#	195390
#	214902
#	236077
#
# Disc length: 3274 seconds
#
# Revision: 1
# Processed by: cddbd v1.4b41PL1 Copyright (c) Steve Scherf et al.
# Submitted via: CDValet v3.01 - Copyright (c) 1997 Greg Leichner
#
DISCID=ae0cc80c
DTITLE=Ronnie Earl and the Broadcasters - Surrounded by Love
DYEAR=1900
DGENRE=
TTITLE0=One of These Mornings
TTITLE1=AKOS
TTITLE2=Mr. Downchild
TTITLE3=Off the Hook
TTITLE4=That's When My Soul Comes Down
TTITLE5=Blind Love
TTITLE6=Improvisation on Annie's Boogie
TTITLE7=Jelly, Jelly
TTITLE8=Kathy's Theme
TTITLE9=Surrounded by Love
TTITLE10=Georgia
TTITLE11=Blues for Robert Junior
EXTD=
EXTT0=
EXTT1=
EXTT2=
EXTT3=
EXTT4=
EXTT5=
EXTT6=
EXTT7=
EXTT8=
EXTT9=
EXTT10=
EXTT11=
PLAYORDER=
